<?xml version="1.0" standalone="no"?>
<!DOCTYPE svg PUBLIC "-//W3C//DTD SVG 20010904//EN"
 "http://www.w3.org/TR/2001/REC-SVG-20010904/DTD/svg10.dtd">
<svg version="1.0" xmlns="http://www.w3.org/2000/svg"
 width="500.000000pt" height="500.000000pt" viewBox="0 0 500.000000 500.000000"
 preserveAspectRatio="xMidYMid meet">
<metadata>
Created by potrace 1.14, written by Peter Selinger 2001-2017
</metadata>
<g transform="translate(0.000000,500.000000) scale(0.100000,-0.100000)"
fill="#000000" stroke="none">
<path d="M480 4984 c-169 -41 -334 -172 -409 -326 -75 -153 -70 22 -70 -2153
-1 -1951 -1 -1961 20 -2035 58 -209 196 -358 409 -440 l65 -25 1980 -3 c1977
-2 1980 -2 2055 19 221 61 383 221 447 442 l23 79 0 1957 c0 1946 0 1957 -21
2031 -62 225 -224 387 -449 449 -74 21 -83 21 -2035 20 -1596 -1 -1970 -4
-2015 -15z"/>
</g>
</svg>
